<svg width="11" height="11" viewBox="0 0 11 11" fill="none" xmlns="http://www.w3.org/2000/svg">
<path d="M6.90625 10.1874V7.37485C6.90625 7.25053 6.85686 7.1313 6.76896 7.04339C6.68105 6.95549 6.56182 6.9061 6.4375 6.9061H4.5625C4.43818 6.9061 4.31895 6.95549 4.23104 7.04339C4.14314 7.1313 4.09375 7.25053 4.09375 7.37485V10.1874C4.09375 10.3117 4.04436 10.4309 3.95646 10.5188C3.86855 10.6067 3.74932 10.6561 3.625 10.6561H0.8125C0.68818 10.6561 0.568951 10.6067 0.481044 10.5188C0.393136 10.4309 0.34375 10.3117 0.34375 10.1874V4.76743C0.3448 4.70256 0.358819 4.63855 0.384982 4.57918C0.411146 4.51981 0.448924 4.46627 0.496094 4.42173L5.18359 0.16196C5.27001 0.0829055 5.38288 0.0390625 5.5 0.0390625C5.61712 0.0390625 5.72999 0.0829055 5.81641 0.16196L10.5039 4.42173C10.5511 4.46627 10.5889 4.51981 10.615 4.57918C10.6412 4.63855 10.6552 4.70256 10.6562 4.76743V10.1874C10.6562 10.3117 10.6069 10.4309 10.519 10.5188C10.431 10.6067 10.3118 10.6561 10.1875 10.6561H7.375C7.25068 10.6561 7.13145 10.6067 7.04354 10.5188C6.95564 10.4309 6.90625 10.3117 6.90625 10.1874Z" fill="white"/>
</svg>
