<svg width="269" height="50" viewBox="0 0 269 50" fill="none" xmlns="http://www.w3.org/2000/svg">
<path fill-rule="evenodd" clip-rule="evenodd" d="M21.0708 46.6398C30.846 46.6398 38.7703 38.7416 38.7703 28.9987C38.7703 19.2557 30.846 11.3575 21.0708 11.3575C11.2957 11.3575 3.37133 19.2557 3.37133 28.9987C3.37133 38.7416 11.2957 46.6398 21.0708 46.6398ZM21.0708 50C32.7079 50 42.1417 40.5974 42.1417 28.9987C42.1417 17.4 32.7079 7.99732 21.0708 7.99732C9.43373 7.99732 0 17.4 0 28.9987C0 40.5974 9.43373 50 21.0708 50Z" fill="#26211E"/>
<path d="M18.0287 41.9568V42.8428H14.8434V41.9568H18.0287ZM15.1891 36.8705V42.8428H14.0574V36.8705H15.1891ZM17.6131 39.3357V40.2012H14.8434V39.3357H17.6131ZM18.0164 36.8705V37.7606H14.8434V36.8705H18.0164Z" fill="#0082DA"/>
<path d="M19.7119 39.6187L20.8025 38.905C20.9754 38.7901 21.0947 38.6794 21.1606 38.5727C21.2264 38.4661 21.2593 38.3376 21.2593 38.1872C21.2593 38.0532 21.2072 37.9288 21.1029 37.8139C21.0014 37.6963 20.8574 37.6375 20.6708 37.6375C20.5391 37.6375 20.428 37.6676 20.3375 37.7278C20.2469 37.7879 20.1783 37.8686 20.1317 37.9698C20.0878 38.0682 20.0659 38.1776 20.0659 38.2979C20.0659 38.421 20.0974 38.5468 20.1605 38.6753C20.2264 38.8038 20.3141 38.9392 20.4239 39.0814C20.5364 39.2208 20.6612 39.3726 20.7984 39.5367L23.6257 42.8428H22.3828L20.07 40.1602C19.8752 39.9195 19.7023 39.698 19.5514 39.4957C19.4005 39.2933 19.2826 39.0978 19.1975 38.9091C19.1152 38.7177 19.074 38.5208 19.074 38.3184C19.074 38.0067 19.1399 37.736 19.2716 37.5063C19.4033 37.2766 19.5885 37.0988 19.8272 36.973C20.0686 36.8472 20.3512 36.7844 20.6749 36.7844C20.9822 36.7844 21.247 36.8472 21.4692 36.973C21.6942 37.0961 21.8684 37.2602 21.9919 37.4653C22.1153 37.6703 22.1771 37.8946 22.1771 38.138C22.1771 38.3239 22.1428 38.4962 22.0742 38.6548C22.0056 38.8107 21.9109 38.9542 21.7902 39.0855C21.6695 39.214 21.5296 39.3357 21.3704 39.4505L20.0864 40.3693C19.963 40.4733 19.8697 40.5758 19.8066 40.677C19.7462 40.7754 19.7051 40.867 19.6831 40.9518C19.6639 41.0366 19.6543 41.1159 19.6543 41.1897C19.6543 41.3565 19.69 41.5069 19.7613 41.6409C19.8354 41.7722 19.9396 41.8775 20.0741 41.9568C20.2113 42.0333 20.3731 42.0716 20.5597 42.0716C20.7874 42.0716 21.0069 42.021 21.2182 41.9198C21.4294 41.8187 21.6187 41.6751 21.7861 41.4891C21.9562 41.3032 22.0906 41.0817 22.1894 40.8247C22.2909 40.5649 22.3417 40.2791 22.3417 39.9674H23.2717C23.2717 40.2654 23.2429 40.5485 23.1853 40.8164C23.1277 41.0817 23.0344 41.3278 22.9055 41.5548C22.7765 41.7817 22.6078 41.9841 22.3993 42.1618C22.3801 42.1783 22.3568 42.2001 22.3293 42.2275C22.3046 42.2548 22.2827 42.2767 22.2635 42.2931C22.0138 42.5064 21.7436 42.6664 21.4527 42.773C21.1647 42.8769 20.8505 42.9289 20.5103 42.9289C20.1098 42.9289 19.7641 42.8564 19.4732 42.7115C19.1824 42.5666 18.9574 42.3669 18.7983 42.1126C18.6419 41.8583 18.5637 41.5671 18.5637 41.2389C18.5637 40.9956 18.6117 40.7836 18.7078 40.6032C18.8065 40.4199 18.9424 40.2504 19.1152 40.0945C19.288 39.9359 19.487 39.7773 19.7119 39.6187Z" fill="#0082DA"/>
<path d="M26.5929 40.6647H25.0496V39.7787H26.5929C26.8453 39.7787 27.0497 39.7377 27.2061 39.6556C27.3652 39.5709 27.4818 39.456 27.5559 39.3111C27.63 39.1634 27.667 38.9952 27.667 38.8066C27.667 38.6233 27.63 38.4524 27.5559 38.2938C27.4818 38.1352 27.3652 38.0067 27.2061 37.9083C27.0497 37.8098 26.8453 37.7606 26.5929 37.7606H25.42V42.8428H24.2883V36.8705H26.5929C27.0593 36.8705 27.4571 36.9539 27.7863 37.1207C28.1183 37.2848 28.3707 37.5131 28.5436 37.8057C28.7192 38.0956 28.807 38.4265 28.807 38.7983C28.807 39.1839 28.7192 39.5162 28.5436 39.7951C28.3707 40.074 28.1183 40.2887 27.7863 40.4391C27.4571 40.5895 27.0593 40.6647 26.5929 40.6647Z" fill="#0082DA"/>
<path fill-rule="evenodd" clip-rule="evenodd" d="M13.9603 34.287C9.94067 29.7567 9.74564 24.6951 10.8596 21.7966C12.9589 16.3342 20.5674 13.8375 21.7125 5.6743C22.015 25.9559 11.9597 19.0592 13.9603 34.287Z" fill="#0093DE"/>
<path fill-rule="evenodd" clip-rule="evenodd" d="M9.72109 21.7312C9.07826 9.16976 19.513 10.7369 20.8649 4.86374e-05C22.6341 12.9199 11.0812 14.3175 9.72109 21.7312Z" fill="#90D6F7"/>
<path fill-rule="evenodd" clip-rule="evenodd" d="M21.3492 17.7472C20.7383 22.4422 16.0638 25.608 16.1004 30.142C16.0622 32.5121 18.0852 36.1537 22.076 36.0175C24.1962 35.9892 25.9087 35.1069 26.9906 33.8076C28.989 31.2319 28.3637 27.9329 27.0797 25.1979C25.6191 22.3497 23.0797 20.0982 21.3492 17.7472Z" fill="#26211E"/>
<path fill-rule="evenodd" clip-rule="evenodd" d="M23.8094 23.8641C23.6902 24.7801 22.7782 25.3977 22.7854 26.2823C22.7779 26.7447 23.1726 27.4552 23.9512 27.4286C24.3649 27.4231 24.699 27.251 24.9101 26.9975C25.3 26.495 25.1622 25.8513 24.9117 25.3177C24.6267 24.762 24.147 24.3228 23.8094 23.8641Z" fill="white"/>
<path d="M193.326 30.8712C192.169 30.8712 191.069 30.7105 190.027 30.3891C189 30.0838 188.088 29.5938 187.289 28.9189C186.507 28.244 185.888 27.3844 185.432 26.34C184.976 25.2795 184.748 24.0101 184.748 22.5318C184.748 21.0214 184.992 19.736 185.481 18.6755C185.97 17.615 186.63 16.7554 187.46 16.0966C188.291 15.4378 189.236 14.9558 190.295 14.6505C191.354 14.3452 192.446 14.1925 193.57 14.1925C194.596 14.1925 195.484 14.305 196.234 14.5299C196.983 14.7388 197.7 15.0281 198.384 15.3976L198.482 19.2299H196.478L195.696 15.9279C195.256 15.719 194.776 15.6145 194.254 15.6145C193.472 15.6145 192.739 15.8475 192.055 16.3135C191.371 16.7634 190.817 17.5025 190.393 18.5309C189.969 19.5432 189.758 20.8849 189.758 22.5559C189.758 24.211 189.961 25.5446 190.369 26.5569C190.792 27.5692 191.338 28.3003 192.006 28.7502C192.69 29.2001 193.407 29.425 194.157 29.425C194.727 29.425 195.297 29.2965 195.867 29.0394L196.625 25.8338H198.629L198.531 29.6179C197.928 29.9553 197.187 30.2445 196.307 30.4855C195.444 30.7426 194.45 30.8712 193.326 30.8712Z" fill="#0195DD"/>
<path d="M205.989 19.5673C205.614 19.5673 205.296 19.8404 205.036 20.3868C204.775 20.9331 204.628 21.9534 204.596 23.4477H205.744C206.331 23.4477 206.722 23.3352 206.917 23.1103C207.129 22.8693 207.235 22.4435 207.235 21.8329C207.235 20.9973 207.105 20.4109 206.844 20.0734C206.6 19.736 206.314 19.5673 205.989 19.5673ZM206.062 30.7748C204.84 30.7748 203.748 30.5257 202.787 30.0276C201.842 29.5295 201.093 28.8145 200.539 27.8825C199.985 26.9345 199.708 25.8017 199.708 24.4841C199.708 23.4397 199.895 22.5318 200.27 21.7606C200.645 20.9893 201.15 20.3466 201.785 19.8324C202.421 19.3022 203.129 18.9085 203.911 18.6514C204.693 18.3943 205.484 18.2658 206.282 18.2658C207.455 18.2658 208.424 18.5068 209.19 18.9888C209.972 19.4548 210.559 20.0895 210.95 20.8929C211.341 21.6802 211.536 22.564 211.536 23.5441C211.536 23.8012 211.528 24.0262 211.512 24.219C211.495 24.3957 211.463 24.5966 211.414 24.8215H204.62C204.75 25.9945 205.101 26.8461 205.671 27.3764C206.257 27.9066 206.909 28.1717 207.626 28.1717C208.245 28.1717 208.775 28.0673 209.214 27.8584C209.671 27.6335 210.07 27.3603 210.412 27.0389L211.365 27.9548C210.844 28.935 210.127 29.65 209.214 30.0999C208.318 30.5498 207.268 30.7748 206.062 30.7748Z" fill="#0195DD"/>
<path d="M212.455 35.7398V34.4865L213.555 34.2455C213.571 33.4421 213.579 32.7029 213.579 32.0281C213.595 31.3693 213.604 30.7587 213.604 30.1963V23.8334C213.604 23.3835 213.595 23.0219 213.579 22.7488C213.579 22.4756 213.571 22.2185 213.555 21.9775C213.555 21.7365 213.547 21.4553 213.53 21.1339L212.211 20.917V19.9288L217.563 18.2658L217.978 18.4827L218.076 19.7601C219.07 18.7639 220.259 18.2658 221.644 18.2658C222.54 18.2658 223.354 18.4988 224.088 18.9647C224.821 19.4146 225.399 20.0975 225.823 21.0134C226.263 21.9293 226.483 23.0782 226.483 24.46C226.483 25.7776 226.23 26.9104 225.725 27.8584C225.22 28.7904 224.56 29.5134 223.745 30.0276C222.947 30.5257 222.092 30.7748 221.179 30.7748C220.528 30.7748 219.958 30.6703 219.469 30.4614C218.98 30.2686 218.548 29.9874 218.174 29.6179V30.1963C218.174 30.7426 218.174 31.3371 218.174 31.9799C218.19 32.6387 218.206 33.3537 218.222 34.125L219.518 34.4865V35.7398H212.455ZM219.395 20.6519C219.184 20.6519 218.98 20.684 218.784 20.7483C218.605 20.8126 218.426 20.9009 218.247 21.0134V28.1235C218.573 28.3485 218.956 28.461 219.395 28.461C220.047 28.461 220.568 28.1396 220.959 27.4969C221.35 26.8381 221.546 25.8258 221.546 24.46C221.546 23.0782 221.35 22.098 220.959 21.5196C220.568 20.9411 220.047 20.6519 219.395 20.6519Z" fill="#0195DD"/>
<path d="M227.583 19.8806V18.6514H235.281C236.389 18.6514 237.261 18.7719 237.896 19.0129C238.532 19.254 238.98 19.5834 239.24 20.0011C239.517 20.4028 239.656 20.8608 239.656 21.3749C239.656 21.9695 239.468 22.5077 239.094 22.9898C238.735 23.4718 238.002 23.8253 236.894 24.0503C238.1 24.1949 238.955 24.5243 239.46 25.0385C239.982 25.5526 240.242 26.2355 240.242 27.0871C240.242 27.6335 240.079 28.1637 239.754 28.6779C239.444 29.176 238.866 29.5857 238.018 29.9071C237.188 30.2284 235.982 30.3891 234.402 30.3891H227.583V29.1599L228.708 28.9189C228.724 28.3405 228.732 27.7218 228.732 27.063C228.732 26.4042 228.732 25.8258 228.732 25.3277V23.7128C228.732 23.2147 228.732 22.6363 228.732 21.9775C228.732 21.3187 228.724 20.7001 228.708 20.1216L227.583 19.8806ZM233.131 25.3277C233.131 25.8258 233.131 26.4203 233.131 27.1112C233.131 27.7861 233.139 28.4208 233.155 29.0153H233.815C234.45 29.0153 234.947 28.8466 235.306 28.5092C235.664 28.1717 235.843 27.6736 235.843 27.0148C235.843 25.5044 235.167 24.7492 233.815 24.7492H233.131V25.3277ZM233.766 20.0252H233.155C233.155 20.5394 233.147 21.1098 233.131 21.7365C233.131 22.3471 233.131 22.9416 233.131 23.52H233.693C234.279 23.52 234.719 23.3513 235.013 23.0139C235.322 22.6604 235.477 22.1944 235.477 21.616C235.477 20.5555 234.907 20.0252 233.766 20.0252Z" fill="#0195DD"/>
<path d="M249.568 19.8806V18.6514H256.239V19.8806L255.115 20.1216C255.099 20.7001 255.091 21.3187 255.091 21.9775C255.091 22.6363 255.091 23.2147 255.091 23.7128V25.3277C255.091 25.8258 255.091 26.4042 255.091 27.063C255.091 27.7218 255.099 28.3405 255.115 28.9189L256.239 29.1599V30.3891H249.568V29.1599L250.912 28.7984V22.9657L246.831 27.8102V28.8466L248.175 29.1599V30.3891H241.234V29.1599L242.359 28.9189C242.375 28.3405 242.383 27.7218 242.383 27.063C242.383 26.4042 242.383 25.8258 242.383 25.3277V23.7128C242.383 23.2147 242.383 22.6363 242.383 21.9775C242.383 21.3187 242.375 20.7001 242.359 20.1216L241.234 19.8806V18.6514H248.175V19.8806L246.831 20.1939V25.7615L250.912 20.917V20.2421L249.568 19.8806Z" fill="#0195DD"/>
<path d="M263.672 30.7748C262.565 30.7748 261.53 30.5498 260.569 30.0999C259.608 29.6339 258.826 28.943 258.223 28.0271C257.636 27.1112 257.343 25.9543 257.343 24.5564C257.343 23.2228 257.652 22.09 258.272 21.158C258.891 20.21 259.73 19.495 260.789 19.0129C261.848 18.5148 263.029 18.2658 264.332 18.2658C265.245 18.2658 266.043 18.4345 266.727 18.7719C267.411 19.1093 267.949 19.5593 268.34 20.1216C268.747 20.668 268.967 21.2705 269 21.9293C268.69 22.8612 268.071 23.3272 267.143 23.3272C266.638 23.3272 266.173 23.1344 265.75 22.7488C265.326 22.3631 265.09 21.6401 265.041 20.5796L264.992 19.5673H264.894C264.52 19.5673 264.12 19.7119 263.697 20.0011C263.29 20.2743 262.939 20.7403 262.646 21.399C262.369 22.0418 262.231 22.9175 262.231 24.0262C262.231 25.3598 262.516 26.3882 263.086 27.1112C263.672 27.8182 264.454 28.1717 265.432 28.1717C265.97 28.1717 266.434 28.0673 266.825 27.8584C267.216 27.6335 267.583 27.3603 267.925 27.0389L268.878 27.9548C268.356 28.935 267.648 29.65 266.752 30.0999C265.856 30.5498 264.829 30.7748 263.672 30.7748Z" fill="#0195DD"/>
<path d="M104.24 30.374V28.948L106.665 28.6579V16.2828L104.534 16.0411V14.615H111.783L115.163 24.1381L118.346 14.615H125.081V16.0411L123.514 16.2103C123.497 17.1932 123.489 18.1761 123.489 19.159C123.489 20.1419 123.489 21.1249 123.489 22.1078V22.8812C123.489 23.8642 123.489 24.8551 123.489 25.8542C123.489 26.8371 123.497 27.812 123.514 28.7788L125.203 28.948V30.374H116.926V28.948L118.591 28.7546C118.624 27.7878 118.632 26.8613 118.616 25.975C118.616 25.0727 118.624 24.2751 118.64 23.5822L118.714 18.6514L114.722 30.374H112.567L108.281 18.5548L108.379 23.4372V28.6337L110.412 28.948V30.374H104.24Z" fill="#26211E"/>
<path d="M133.513 19.7391V18.6031H138.117V19.7391L136.745 20.0533L134.027 28.9963H136.598V30.374H133.856C133.856 31.0991 133.856 31.7598 133.856 32.356C133.872 32.9683 133.888 33.5645 133.905 34.1446L135.154 34.4829V35.7398H127.978V34.4829L129.227 34.2171C129.243 33.6209 129.252 33.0166 129.252 32.4043C129.268 31.792 129.276 31.1152 129.276 30.374H126.313V28.9963H129.007L125.921 19.9808L124.868 19.7391V18.6031H132.239V19.7391L130.794 20.0533L132.827 28.247L134.958 20.0533L133.513 19.7391Z" fill="#26211E"/>
<path d="M146.642 19.8358V18.6031H153.597V19.8358L152.471 20.0775C152.455 20.6576 152.446 21.2779 152.446 21.9386C152.446 22.5992 152.446 23.1793 152.446 23.6789V25.2983C152.446 25.7978 152.446 26.3779 152.446 27.0385C152.446 27.6992 152.455 28.3195 152.471 28.8996L153.597 29.1413V30.374H146.642V29.1413L147.769 28.8996C147.785 28.3195 147.793 27.675 147.793 26.966C147.793 26.2409 147.793 25.5158 147.793 24.7907H144.61C144.61 25.4997 144.61 26.2167 144.61 26.9418C144.61 27.6669 144.618 28.3195 144.634 28.8996L145.761 29.1413V30.374H138.806V29.1413L139.932 28.8996C139.949 28.3195 139.957 27.6992 139.957 27.0385C139.957 26.3779 139.957 25.7978 139.957 25.2983V23.6789C139.957 23.1793 139.957 22.5992 139.957 21.9386C139.957 21.2779 139.949 20.6576 139.932 20.0775L138.806 19.8358V18.6031H145.761V19.8358L144.634 20.0775C144.634 20.6092 144.626 21.1732 144.61 21.7694C144.61 22.3656 144.61 22.9135 144.61 23.413H147.793C147.793 22.9135 147.785 22.3656 147.769 21.7694C147.769 21.1732 147.769 20.6092 147.769 20.0775L146.642 19.8358Z" fill="#26211E"/>
<path d="M164.309 30.7607C163.541 30.7607 162.921 30.6157 162.448 30.3257C161.99 30.0195 161.656 29.5925 161.444 29.0446C160.97 29.5603 160.488 29.9792 159.999 30.3015C159.525 30.6077 158.848 30.7607 157.966 30.7607C157.003 30.7607 156.227 30.4868 155.64 29.9389C155.068 29.3911 154.782 28.6257 154.782 27.6428C154.782 27.0143 154.921 26.4584 155.199 25.975C155.493 25.4755 155.999 25.0243 156.717 24.6215C157.452 24.2025 158.48 23.8239 159.803 23.4855C159.999 23.4372 160.227 23.3808 160.488 23.3163C160.75 23.2357 161.019 23.1632 161.297 23.0988V22.2286C161.297 21.1974 161.174 20.4884 160.929 20.1017C160.701 19.7149 160.203 19.5216 159.435 19.5216C159.37 19.5216 159.305 19.5216 159.239 19.5216C159.191 19.5216 159.133 19.5216 159.068 19.5216V20.3434C159.068 21.3263 158.864 22.0272 158.456 22.4462C158.048 22.849 157.582 23.0504 157.06 23.0504C156.064 23.0504 155.444 22.6154 155.199 21.7452C155.199 20.6979 155.697 19.8519 156.693 19.2074C157.705 18.5467 159.199 18.2164 161.174 18.2164C162.872 18.2164 164.064 18.587 164.75 19.3282C165.452 20.0533 165.803 21.2457 165.803 22.9054V28.4404C165.803 28.7143 165.941 28.8513 166.219 28.8513C166.317 28.8513 166.415 28.8191 166.513 28.7546C166.611 28.674 166.733 28.529 166.88 28.3195L167.59 28.7063C167.297 29.4475 166.888 29.9792 166.366 30.3015C165.86 30.6077 165.174 30.7607 164.309 30.7607ZM158.995 26.8935C158.995 27.4897 159.117 27.9328 159.362 28.2229C159.607 28.5129 159.909 28.6579 160.268 28.6579C160.382 28.6579 160.505 28.6337 160.635 28.5854C160.782 28.521 161.003 28.392 161.297 28.1987V24.2348C161.052 24.2992 160.815 24.3878 160.586 24.5006C160.244 24.6618 159.893 24.9357 159.533 25.3224C159.174 25.7092 158.995 26.2328 158.995 26.8935Z" fill="#26211E"/>
<path d="M176.19 19.8358V18.6031H182.876V19.8358L181.749 20.0775C181.733 20.6576 181.725 21.2779 181.725 21.9386C181.725 22.5992 181.725 23.1793 181.725 23.6789V25.2983C181.725 25.7978 181.725 26.3779 181.725 27.0385C181.725 27.6992 181.733 28.3195 181.749 28.8996L182.876 29.1413V30.374H176.19V29.1413L177.537 28.7788V22.9296L173.447 27.7878V28.8271L174.794 29.1413V30.374H167.839V29.1413L168.966 28.8996C168.982 28.3195 168.99 27.6992 168.99 27.0385C168.99 26.3779 168.99 25.7978 168.99 25.2983V23.6789C168.99 23.1793 168.99 22.5992 168.99 21.9386C168.99 21.2779 168.982 20.6576 168.966 20.0775L167.839 19.8358V18.6031H174.794V19.8358L173.447 20.15V25.7333L177.537 20.8751V20.1983L176.19 19.8358ZM175.431 17.2012C174.272 17.2012 173.325 17.0482 172.59 16.742C171.872 16.4197 171.349 15.9927 171.023 15.461C170.696 14.9292 170.533 14.3411 170.533 13.6965C170.696 13.1809 170.941 12.8264 171.268 12.6331C171.594 12.4236 171.97 12.3188 172.394 12.3188C172.933 12.3188 173.349 12.4639 173.643 12.7539C173.953 13.044 174.108 13.4307 174.108 13.9141C174.108 14.2686 174.019 14.5908 173.839 14.8809C173.676 15.1548 173.455 15.3965 173.178 15.606C173.488 15.7188 173.823 15.8074 174.182 15.8719C174.557 15.9202 174.974 15.9444 175.431 15.9444C175.904 15.9444 176.321 15.9202 176.68 15.8719C177.039 15.8074 177.374 15.7188 177.684 15.606C177.406 15.3965 177.178 15.1548 176.998 14.8809C176.835 14.5908 176.753 14.2686 176.753 13.9141C176.753 13.4307 176.9 13.044 177.194 12.7539C177.504 12.4639 177.929 12.3188 178.468 12.3188C178.892 12.3188 179.268 12.4236 179.594 12.6331C179.921 12.8264 180.165 13.1809 180.329 13.6965C180.329 14.3411 180.165 14.9292 179.839 15.461C179.512 15.9927 178.99 16.4197 178.272 16.742C177.553 17.0482 176.606 17.2012 175.431 17.2012Z" fill="#26211E"/>
<path d="M54.9925 15.6546C53.9515 15.6546 53.187 16.1176 52.6991 17.0436C52.2274 17.9697 51.9671 19.4968 51.9183 21.6249H58.0667C58.0179 19.4968 57.7576 17.9697 57.2859 17.0436C56.8142 16.1176 56.0498 15.6546 54.9925 15.6546ZM54.9925 14.1925C56.4889 14.1925 57.8308 14.4849 59.0182 15.0698C60.2056 15.6546 61.1409 16.5644 61.824 17.7991C62.5072 19.0338 62.8488 20.6421 62.8488 22.6241C62.8488 24.5898 62.5072 26.1981 61.824 27.449C61.1409 28.6837 60.2056 29.5935 59.0182 30.1783C57.8471 30.7632 56.5052 31.0556 54.9925 31.0556C53.4961 31.0556 52.1542 30.7632 50.9668 30.1783C49.7794 29.5935 48.8441 28.6837 48.161 27.449C47.4778 26.1981 47.1362 24.5898 47.1362 22.6241C47.1362 20.6421 47.4778 19.0338 48.161 17.7991C48.8441 16.5644 49.7794 15.6546 50.9668 15.0698C52.1542 14.4849 53.4961 14.1925 54.9925 14.1925ZM54.9925 29.5691C56.0823 29.5691 56.863 29.0817 57.3347 28.107C57.8064 27.116 58.0586 25.4671 58.0911 23.1602H51.8939C51.9264 25.4671 52.1786 27.116 52.6503 28.107C53.122 29.0817 53.9027 29.5691 54.9925 29.5691Z" fill="#0195DD"/>
<path d="M74.8388 27.181C74.8388 28.3832 74.2777 29.3173 73.1554 29.9834C72.0493 30.6332 70.561 30.9581 68.6905 30.9581C67.2591 30.9581 66.153 30.6982 65.3723 30.1783C64.6078 29.6585 64.1117 28.8949 63.884 27.8877C63.949 27.4653 64.1361 27.1241 64.4451 26.8642C64.7542 26.6043 65.1202 26.4743 65.5431 26.4743C66.031 26.4743 66.4214 26.6043 66.7142 26.8642C67.0232 27.1079 67.2591 27.6196 67.4217 28.3994L67.6657 29.5935C67.7633 29.6097 67.8528 29.6179 67.9341 29.6179C68.0317 29.6179 68.1293 29.6179 68.2269 29.6179C69.0402 29.6179 69.642 29.4148 70.0324 29.0086C70.439 28.5863 70.6423 28.0095 70.6423 27.2785C70.6423 26.6774 70.4797 26.1494 70.1544 25.6945C69.829 25.2234 69.276 24.9878 68.4953 24.9878H67.3485V23.5501H68.6173C69.3167 23.5501 69.8372 23.347 70.1788 22.9409C70.5203 22.5185 70.6911 22.023 70.6911 21.4544C70.6911 20.8695 70.5041 20.4228 70.13 20.1141C69.7558 19.8054 69.276 19.6511 68.6905 19.6511C68.2188 19.6511 67.8284 19.6836 67.5193 19.7486L66.9826 22.2829H64.7379L64.4939 19.1881C65.2259 18.8307 65.9416 18.5951 66.641 18.4814C67.3567 18.3677 68.1293 18.3108 68.9588 18.3108C70.7318 18.3108 72.09 18.587 73.0334 19.1393C73.993 19.6917 74.4729 20.4959 74.4729 21.5518C74.4729 22.1529 74.2289 22.6972 73.7409 23.1845C73.2529 23.6557 72.4803 23.9806 71.4231 24.1593C72.3665 24.3055 73.0822 24.5411 73.5701 24.866C74.0581 25.1909 74.3915 25.5564 74.5705 25.9626C74.7494 26.3687 74.8388 26.7748 74.8388 27.181Z" fill="#0195DD"/>
<path d="M81.9712 19.6267C81.5971 19.6267 81.2799 19.9029 81.0196 20.4553C80.7594 21.0076 80.613 22.0392 80.5805 23.5501H81.7272C82.3127 23.5501 82.7031 23.4363 82.8983 23.2089C83.1098 22.9652 83.2155 22.5347 83.2155 21.9174C83.2155 21.0726 83.0854 20.4796 82.8251 20.1385C82.5811 19.7973 82.2965 19.6267 81.9712 19.6267ZM82.0444 30.9581C80.8244 30.9581 79.7346 30.7063 78.775 30.2027C77.8316 29.6991 77.0834 28.9761 76.5303 28.0339C75.9773 27.0754 75.7008 25.9301 75.7008 24.5979C75.7008 23.5419 75.8878 22.6241 76.2619 21.8443C76.6361 21.0645 77.1403 20.4146 77.7746 19.8948C78.409 19.3587 79.1166 18.9606 79.8973 18.7007C80.678 18.4408 81.4669 18.3108 82.2639 18.3108C83.4351 18.3108 84.4029 18.5545 85.1673 19.0419C85.9481 19.513 86.5337 20.1547 86.924 20.967C87.3144 21.763 87.5096 22.6566 87.5096 23.6475C87.5096 23.9075 87.5015 24.1349 87.4852 24.3299C87.4689 24.5086 87.4364 24.7116 87.3876 24.9391H80.6049C80.735 26.125 81.0847 26.986 81.654 27.5222C82.2395 28.0583 82.8902 28.3263 83.6059 28.3263C84.2239 28.3263 84.7526 28.2207 85.1917 28.0095C85.6472 27.7821 86.0457 27.5059 86.3873 27.181L87.3388 28.107C86.8183 29.098 86.1026 29.8209 85.1917 30.2758C84.2971 30.7307 83.248 30.9581 82.0444 30.9581Z" fill="#0195DD"/>
<path d="M96.3751 19.9435V18.7007H103.304V19.9435L102.182 20.1872C102.166 20.772 102.158 21.3975 102.158 22.0636C102.158 22.7297 102.158 23.3145 102.158 23.8181V25.4508C102.158 25.9544 102.158 26.5393 102.158 27.2054C102.158 27.8714 102.166 28.4969 102.182 29.0817L103.304 29.3254V30.5682H96.3751V29.3254L97.4975 29.0817C97.5137 28.4969 97.5219 27.8471 97.5219 27.1323C97.5219 26.4012 97.5219 25.6701 97.5219 24.9391H94.3501C94.3501 25.6539 94.3501 26.3768 94.3501 27.1079C94.3501 27.8389 94.3582 28.4969 94.3745 29.0817L95.4968 29.3254V30.5682H88.5677V29.3254L89.69 29.0817C89.7063 28.4969 89.7144 27.8714 89.7144 27.2054C89.7144 26.5393 89.7144 25.9544 89.7144 25.4508V23.8181C89.7144 23.3145 89.7144 22.7297 89.7144 22.0636C89.7144 21.3975 89.7063 20.772 89.69 20.1872L88.5677 19.9435V18.7007H95.4968V19.9435L94.3745 20.1872C94.3745 20.7233 94.3664 21.2919 94.3501 21.893C94.3501 22.4941 94.3501 23.0465 94.3501 23.5501H97.5219C97.5219 23.0465 97.5137 22.4941 97.4975 21.893C97.4975 21.2919 97.4975 20.7233 97.4975 20.1872L96.3751 19.9435Z" fill="#0195DD"/>
<path d="M74.3758 40.2745V42.1107C74.5041 42.099 74.6011 42.045 74.667 41.9489C74.7328 41.8528 74.8238 41.633 74.9399 41.2897C75.0925 40.8405 75.2484 40.5541 75.4079 40.4305C75.5656 40.3088 75.8282 40.248 76.1956 40.248C76.2129 40.248 76.2502 40.247 76.3074 40.2451V40.8895L76.1956 40.8866C76.0396 40.8866 75.9252 40.9091 75.8524 40.9543C75.7796 40.9974 75.7207 41.0641 75.6756 41.1544C75.6306 41.2446 75.5639 41.43 75.4755 41.7105C75.4287 41.8596 75.3776 41.9842 75.3221 42.0843C75.2684 42.1843 75.1722 42.2785 75.0335 42.3668C75.2051 42.4237 75.3464 42.5355 75.4573 42.7022C75.5699 42.867 75.693 43.1015 75.8264 43.4055L76.3464 44.5885H75.4417L74.9841 43.4732C74.9789 43.4575 74.9642 43.4271 74.9399 43.382C74.9261 43.3526 74.8949 43.2849 74.8464 43.1789C74.7493 42.973 74.6696 42.8415 74.6072 42.7846C74.5448 42.7277 74.4677 42.6993 74.3758 42.6993V44.5885H73.6245V42.6993C73.5361 42.6993 73.4599 42.7267 73.3958 42.7817C73.3316 42.8366 73.2519 42.969 73.1566 43.1789C73.1029 43.2967 73.0708 43.3643 73.0604 43.382C73.0448 43.4114 73.0301 43.4418 73.0162 43.4732L72.5587 44.5885H71.654L72.1739 43.4055C72.3022 43.1132 72.4226 42.8817 72.5353 42.7111C72.6497 42.5384 72.7944 42.4237 72.9694 42.3668C72.8308 42.2785 72.7337 42.1853 72.6783 42.0872C72.6245 41.9872 72.5734 41.8616 72.5249 41.7105C72.4382 41.4359 72.3724 41.2525 72.3273 41.1603C72.284 41.068 72.225 40.9994 72.1505 40.9543C72.0777 40.9091 71.9582 40.8866 71.7918 40.8866C71.771 40.8866 71.738 40.8876 71.693 40.8895V40.2451C71.7502 40.247 71.7874 40.248 71.8048 40.248C72.1774 40.248 72.4426 40.3098 72.6003 40.4334C72.7562 40.559 72.9096 40.8444 73.0604 41.2897C73.1783 41.635 73.2692 41.8557 73.3334 41.9518C73.3992 42.046 73.4963 42.099 73.6245 42.1107V40.2745H74.3758Z" fill="#26211E"/>
<path d="M82.0164 44.5885H81.1793L80.8466 43.6086H79.3232L79.0086 44.5885H78.1923L79.6767 40.2745H80.4904L82.0164 44.5885ZM80.5996 42.8817L80.0745 41.2809L79.5597 42.8817H80.5996Z" fill="#26211E"/>
<path d="M83.6206 40.2745H84.4811L85.3701 42.5139L86.1292 40.2745H86.9325L85.6457 43.5527C85.5053 43.9078 85.3623 44.1785 85.2168 44.3649C85.0712 44.5493 84.8831 44.6415 84.6526 44.6415C84.4256 44.6415 84.248 44.6248 84.1197 44.5914V43.944C84.2289 43.9519 84.3277 43.9558 84.4161 43.9558C84.5946 43.9558 84.722 43.9195 84.7982 43.8469C84.8762 43.7724 84.9507 43.6135 85.0218 43.3702L83.6206 40.2745Z" fill="#26211E"/>
<path d="M92.1398 44.5885H91.3027L90.97 43.6086H89.4466L89.132 44.5885H88.3158L89.8002 40.2745H90.6138L92.1398 44.5885ZM90.723 42.8817L90.1979 41.2809L89.6832 42.8817H90.723Z" fill="#26211E"/>
<path d="M94.2718 40.2745H97.3029V44.5885H96.5334V40.9984H95.0412V44.5885H94.2718V40.2745Z" fill="#26211E"/>
<path d="M99.8846 40.2745H100.654V42.1107C100.826 42.0911 100.942 42.0411 101.002 41.9607C101.063 41.8802 101.157 41.6566 101.283 41.2897C101.443 40.8228 101.603 40.5325 101.764 40.4187C101.924 40.3049 102.181 40.248 102.536 40.248C102.554 40.248 102.591 40.247 102.648 40.2451V40.8895L102.539 40.8866C102.381 40.8866 102.266 40.9091 102.193 40.9543C102.12 40.9974 102.061 41.0641 102.016 41.1544C101.971 41.2446 101.905 41.43 101.816 41.7105C101.769 41.8596 101.718 41.9842 101.663 42.0843C101.609 42.1843 101.513 42.2785 101.374 42.3668C101.546 42.4217 101.687 42.5325 101.798 42.6993C101.911 42.866 102.034 43.1015 102.167 43.4055L102.687 44.5885H101.782L101.327 43.4732C101.32 43.4575 101.306 43.4271 101.283 43.382C101.275 43.3663 101.242 43.2986 101.187 43.1789C101.088 42.9671 101.007 42.8346 100.943 42.7817C100.88 42.7287 100.784 42.7012 100.654 42.6993V44.5885H99.8846V40.2745Z" fill="#26211E"/>
<path d="M104.905 44.5885V40.2745H107.731V41.0043H105.674V41.9607H107.588V42.6875H105.674V43.8617H107.803V44.5885H104.905Z" fill="#26211E"/>
<path d="M110.239 44.5885V40.2745H111.474C111.942 40.2745 112.247 40.2961 112.389 40.3392C112.608 40.404 112.791 40.5452 112.938 40.763C113.085 40.9788 113.159 41.2583 113.159 41.6017C113.159 41.8665 113.116 42.0892 113.031 42.2696C112.947 42.4501 112.838 42.5924 112.706 42.6963C112.576 42.7984 112.444 42.866 112.309 42.8994C112.125 42.9406 111.859 42.9612 111.511 42.9612H111.009V44.5885H110.239ZM111.009 41.0043V42.2285H111.43C111.733 42.2285 111.936 42.2059 112.038 42.1608C112.141 42.1156 112.22 42.045 112.278 41.9489C112.336 41.8528 112.366 41.7409 112.366 41.6134C112.366 41.4565 112.325 41.327 112.244 41.225C112.162 41.123 112.059 41.0592 111.934 41.0337C111.843 41.0141 111.658 41.0043 111.381 41.0043H111.009Z" fill="#26211E"/>
<path d="M115.587 40.2745H116.357V43.8646H117.459V40.2745H118.226V43.8646H119.364V40.2745H120.131L120.136 44.5914L115.587 44.5885V40.2745Z" fill="#26211E"/>
<path d="M122.684 44.5885V40.2745H123.454V44.5885H122.684Z" fill="#26211E"/>
<path d="M126.246 40.2745H128.916V44.5885H128.146V41.0043H127V42.8464C127 43.3741 126.984 43.743 126.953 43.9529C126.922 44.1608 126.846 44.3237 126.724 44.4414C126.605 44.5571 126.417 44.615 126.16 44.615C126.07 44.615 125.906 44.6052 125.669 44.5856V43.9117L125.841 43.9146C126.002 43.9146 126.11 43.8901 126.165 43.8411C126.221 43.792 126.249 43.6714 126.249 43.4791L126.246 42.7375V40.2745Z" fill="#26211E"/>
<path d="M131.472 44.5885V40.2745H132.241V44.5885H131.472Z" fill="#26211E"/>
<path d="M134.799 40.2745H137.381V40.9984H135.569V44.5885H134.799V40.2745Z" fill="#26211E"/>
<path d="M139.541 44.5885V40.2745H140.311V44.5885H139.541Z" fill="#26211E"/>
<path d="M146.108 40.2745H146.878V43.8646H147.98V40.2745H148.747V43.8646H149.886V40.2745H150.653L150.658 44.5914L146.108 44.5885V40.2745Z" fill="#26211E"/>
<path d="M153.229 44.5885V40.2745H156.055V41.0043H153.999V41.9607H155.912V42.6875H153.999V43.8617H156.128V44.5885H153.229Z" fill="#26211E"/>
<path d="M158.577 40.2745H159.346V42.1107C159.518 42.0911 159.634 42.0411 159.695 41.9607C159.755 41.8802 159.849 41.6566 159.975 41.2897C160.135 40.8228 160.295 40.5325 160.456 40.4187C160.616 40.3049 160.873 40.248 161.228 40.248C161.246 40.248 161.283 40.247 161.34 40.2451V40.8895L161.231 40.8866C161.073 40.8866 160.958 40.9091 160.885 40.9543C160.812 40.9974 160.753 41.0641 160.708 41.1544C160.663 41.2446 160.597 41.43 160.508 41.7105C160.461 41.8596 160.41 41.9842 160.355 42.0843C160.301 42.1843 160.205 42.2785 160.066 42.3668C160.238 42.4217 160.379 42.5325 160.49 42.6993C160.603 42.866 160.726 43.1015 160.859 43.4055L161.379 44.5885H160.474L160.02 43.4732C160.013 43.4575 159.998 43.4271 159.975 43.382C159.967 43.3663 159.935 43.2986 159.879 43.1789C159.78 42.9671 159.699 42.8346 159.635 42.7817C159.572 42.7287 159.476 42.7012 159.346 42.6993V44.5885H158.577V40.2745Z" fill="#26211E"/>
<path d="M164.59 44.5885V41.0043H163.459V40.2745H166.488V41.0043H165.359V44.5885H164.59Z" fill="#26211E"/>
<path d="M168.77 44.5885V40.2745H171.596V41.0043H169.54V41.9607H171.453V42.6875H169.54V43.8617H171.669V44.5885H168.77Z" fill="#26211E"/>
<path d="M173.718 40.2745H174.578L175.467 42.5139L176.226 40.2745H177.03L175.743 43.5527C175.602 43.9078 175.459 44.1785 175.314 44.3649C175.168 44.5493 174.98 44.6415 174.75 44.6415C174.523 44.6415 174.345 44.6248 174.217 44.5914V43.944C174.326 43.9519 174.425 43.9558 174.513 43.9558C174.692 43.9558 174.819 43.9195 174.895 43.8469C174.973 43.7724 175.048 43.6135 175.119 43.3702L173.718 40.2745Z" fill="#26211E"/>
<path d="M179.271 40.2745H181.941V44.5885H181.171V41.0043H180.025V42.8464C180.025 43.3741 180.009 43.743 179.978 43.9529C179.947 44.1608 179.87 44.3237 179.749 44.4414C179.629 44.5571 179.441 44.615 179.185 44.615C179.095 44.615 178.931 44.6052 178.694 44.5856V43.9117L178.865 43.9146C179.026 43.9146 179.135 43.8901 179.19 43.8411C179.246 43.792 179.273 43.6714 179.273 43.4791L179.271 42.7375V40.2745Z" fill="#26211E"/>
<path d="M184.496 44.5885V40.2745H185.266V44.5885H184.496Z" fill="#26211E"/>
<path d="M193.489 43.0024L194.235 43.2702C194.121 43.741 193.93 44.0912 193.663 44.3207C193.398 44.5483 193.061 44.6621 192.652 44.6621C192.146 44.6621 191.73 44.4669 191.404 44.0765C191.078 43.6841 190.915 43.1485 190.915 42.4698C190.915 41.7517 191.079 41.1946 191.407 40.7983C191.734 40.4001 192.165 40.2009 192.699 40.2009C193.165 40.2009 193.543 40.3569 193.835 40.6688C194.008 40.8532 194.138 41.1181 194.225 41.4634L193.463 41.6693C193.418 41.4457 193.323 41.2691 193.179 41.1397C193.037 41.0102 192.864 40.9454 192.66 40.9454C192.377 40.9454 192.147 41.0602 191.971 41.2897C191.796 41.5193 191.708 41.891 191.708 42.405C191.708 42.9504 191.795 43.3388 191.968 43.5703C192.141 43.8018 192.367 43.9176 192.644 43.9176C192.848 43.9176 193.024 43.844 193.172 43.6969C193.319 43.5497 193.425 43.3182 193.489 43.0024Z" fill="#26211E"/>
<path d="M196.681 44.5885V40.2745H199.507V41.0043H197.451V41.9607H199.364V42.6875H197.451V43.8617H199.58V44.5885H196.681Z" fill="#26211E"/>
<path d="M202.016 44.5885V40.2745H203.251C203.719 40.2745 204.024 40.2961 204.166 40.3392C204.384 40.404 204.567 40.5452 204.715 40.763C204.862 40.9788 204.936 41.2583 204.936 41.6017C204.936 41.8665 204.893 42.0892 204.808 42.2696C204.723 42.4501 204.615 42.5924 204.483 42.6963C204.353 42.7984 204.221 42.866 204.085 42.8994C203.902 42.9406 203.636 42.9612 203.287 42.9612H202.786V44.5885H202.016ZM202.786 41.0043V42.2285H203.207C203.51 42.2285 203.713 42.2059 203.815 42.1608C203.917 42.1156 203.997 42.045 204.054 41.9489C204.113 41.8528 204.143 41.7409 204.143 41.6134C204.143 41.4565 204.102 41.327 204.02 41.225C203.939 41.123 203.836 41.0592 203.711 41.0337C203.619 41.0141 203.435 41.0043 203.157 41.0043H202.786Z" fill="#26211E"/>
<path d="M207.327 44.5885V40.2745H208.097V44.5885H207.327Z" fill="#26211E"/>
<path d="M210.629 40.2745H211.399V42.1107C211.57 42.0911 211.686 42.0411 211.747 41.9607C211.808 41.8802 211.901 41.6566 212.028 41.2897C212.187 40.8228 212.348 40.5325 212.509 40.4187C212.668 40.3049 212.925 40.248 213.281 40.248C213.298 40.248 213.335 40.247 213.393 40.2451V40.8895L213.283 40.8866C213.126 40.8866 213.01 40.9091 212.938 40.9543C212.865 40.9974 212.806 41.0641 212.761 41.1544C212.716 41.2446 212.649 41.43 212.561 41.7105C212.514 41.8596 212.463 41.9842 212.407 42.0843C212.354 42.1843 212.257 42.2785 212.119 42.3668C212.29 42.4217 212.432 42.5325 212.542 42.6993C212.655 42.866 212.778 43.1015 212.912 43.4055L213.432 44.5885H212.527L212.072 43.4732C212.065 43.4575 212.05 43.4271 212.028 43.382C212.019 43.3663 211.987 43.2986 211.932 43.1789C211.833 42.9671 211.751 42.8346 211.687 42.7817C211.625 42.7287 211.529 42.7012 211.399 42.6993V44.5885H210.629V40.2745Z" fill="#26211E"/>
<path d="M216.642 44.5885V41.0043H215.511V40.2745H218.54V41.0043H217.412V44.5885H216.642Z" fill="#26211E"/>
<path d="M220.823 44.5885V40.2745H223.649V41.0043H221.592V41.9607H223.506V42.6875H221.592V43.8617H223.721V44.5885H220.823Z" fill="#26211E"/>
<path d="M228.596 43.0024L229.342 43.2702C229.228 43.741 229.037 44.0912 228.77 44.3207C228.505 44.5483 228.168 44.6621 227.759 44.6621C227.253 44.6621 226.837 44.4669 226.511 44.0765C226.185 43.6841 226.022 43.1485 226.022 42.4698C226.022 41.7517 226.186 41.1946 226.514 40.7983C226.841 40.4001 227.272 40.2009 227.806 40.2009C228.272 40.2009 228.651 40.3569 228.942 40.6688C229.115 40.8532 229.245 41.1181 229.332 41.4634L228.57 41.6693C228.525 41.4457 228.43 41.2691 228.287 41.1397C228.144 41.0102 227.971 40.9454 227.767 40.9454C227.484 40.9454 227.255 41.0602 227.078 41.2897C226.903 41.5193 226.815 41.891 226.815 42.405C226.815 42.9504 226.902 43.3388 227.075 43.5703C227.248 43.8018 227.474 43.9176 227.751 43.9176C227.956 43.9176 228.131 43.844 228.279 43.6969C228.426 43.5497 228.532 43.3182 228.596 43.0024Z" fill="#26211E"/>
<path d="M232.511 44.5885V41.0043H231.38V40.2745H234.409V41.0043H233.281V44.5885H232.511Z" fill="#26211E"/>
<path d="M236.668 44.5885V40.2745H237.438V44.5885H236.668Z" fill="#26211E"/>
<path d="M239.996 40.2745H242.577V40.9984H240.766V44.5885H239.996V40.2745Z" fill="#26211E"/>
<path d="M244.738 44.5885V40.2745H245.507V44.5885H244.738Z" fill="#26211E"/>
</svg>
