<svg width="24" height="24" viewBox="0 0 24 24" fill="none" xmlns="http://www.w3.org/2000/svg">
<path d="M12.686 10.4044C12.4225 10.6678 12.4225 11.0904 12.686 11.3538C13.7746 12.4425 13.7746 14.2122 12.686 15.3008L6.96935 21.0175C5.8807 22.1061 4.11102 22.1061 3.02237 21.0175L2.16239 20.1575C1.07374 19.0688 1.07374 17.2992 2.16239 16.2105L7.87904 10.4939C8.1425 10.2304 8.1425 9.80786 7.87904 9.5444C7.61558 9.28094 7.19304 9.28094 6.92958 9.5444L1.21292 15.2611C0.432477 16.0415 0 17.0804 0 18.184C0 19.2876 0.427506 20.3265 1.21292 21.107L2.07291 21.9669C2.87821 22.7722 3.93703 23.1749 4.99586 23.1749C6.05468 23.1749 7.1135 22.7722 7.91881 21.9669L13.6355 16.2503C15.2461 14.6397 15.2461 12.015 13.6355 10.4044C13.377 10.1409 12.9495 10.1409 12.686 10.4044Z" fill="#0195DD"/>
<path d="M22.7916 2.89313L21.9316 2.03315C20.321 0.422544 17.6963 0.422544 16.0857 2.03315L10.3691 7.7498C8.75848 9.36041 8.75848 11.9851 10.3691 13.5957C10.6325 13.8592 11.0551 13.8592 11.3185 13.5957C11.582 13.3322 11.582 12.9097 11.3185 12.6462C10.2299 11.5576 10.2299 9.78791 11.3185 8.69926L17.0352 2.98261C18.1239 1.89396 19.8935 1.89396 20.9822 2.98261L21.8422 3.84259C22.9308 4.93124 22.9308 6.70092 21.8422 7.78957L16.1255 13.5062C15.862 13.7697 15.862 14.1922 16.1255 14.4557C16.2548 14.5849 16.4287 14.6545 16.5978 14.6545C16.7668 14.6545 16.9408 14.5899 17.07 14.4557L22.7867 8.73903C23.5671 7.95858 23.9996 6.91964 23.9996 5.81608C23.9996 4.71252 23.5721 3.67358 22.7916 2.89313Z" fill="#0195DD"/>
</svg>
